<svg xmlns="http://www.w3.org/2000/svg" width="1600" height="900" viewBox="0 0 1600 900" role="img" aria-labelledby="title desc">
  <title id="title">Deploy local com Docker Compose</title>
  <desc id="desc">Diagrama mostrando portas publicas, rede Docker Compose, containers Node.js, MongoDB, Prometheus e Grafana.</desc>

  <defs>
    <marker id="arrow" markerWidth="12" markerHeight="12" refX="10" refY="6" orient="auto" markerUnits="strokeWidth">
      <path d="M2,2 L10,6 L2,10 Z" fill="#334155"/>
    </marker>
    <marker id="arrowPurple" markerWidth="12" markerHeight="12" refX="10" refY="6" orient="auto" markerUnits="strokeWidth">
      <path d="M2,2 L10,6 L2,10 Z" fill="#6d28d9"/>
    </marker>
    <style>
      .bg { fill: #ffffff; }
      .title { font: 700 34px Arial, sans-serif; fill: #0f172a; }
      .subtitle { font: 400 18px Arial, sans-serif; fill: #475569; }
      .group-title { font: 700 18px Arial, sans-serif; fill: #334155; }
      .box-title { font: 700 19px Arial, sans-serif; }
      .box-text { font: 400 15px Arial, sans-serif; }
      .small { font: 400 13px Arial, sans-serif; fill: #475569; }
      .host { fill: #f8fafc; stroke: #cbd5e1; stroke-width: 2; rx: 12; }
      .network { fill: #ffffff; stroke: #cbd5e1; stroke-width: 2; rx: 10; }
      .command { fill: #eef7ff; stroke: #2563eb; stroke-width: 2; rx: 8; }
      .port { fill: #f8fafc; stroke: #64748b; stroke-width: 2; rx: 8; }
      .gateway { fill: #0f5132; stroke: #0f5132; stroke-width: 2; rx: 8; }
      .service { fill: #ecfdf3; stroke: #17803d; stroke-width: 2; rx: 8; }
      .database { fill: #fff7ed; stroke: #f97316; stroke-width: 2; }
      .obs { fill: #f5f3ff; stroke: #7c3aed; stroke-width: 2; rx: 8; }
      .line { fill: none; stroke: #334155; stroke-width: 2.3; marker-end: url(#arrow); }
      .purple-line { fill: none; stroke: #6d28d9; stroke-width: 2.3; marker-end: url(#arrowPurple); stroke-dasharray: 8 7; }
      .label { font: 600 13px Arial, sans-serif; fill: #334155; }
      .white { fill: #ffffff; }
      .dark { fill: #0f172a; }
    </style>
  </defs>

  <rect class="bg" width="1600" height="900"/>

  <text x="60" y="62" class="title">Deploy Local com Docker Compose</text>
  <text x="60" y="94" class="subtitle">Um comando sobe gateway, microservicos, banco e observabilidade em uma rede Docker interna.</text>

  <rect x="60" y="130" width="360" height="86" class="command"/>
  <text x="240" y="163" text-anchor="middle" class="box-title dark">Comando principal</text>
  <text x="240" y="190" text-anchor="middle" class="box-text dark">docker compose up --build -d</text>

  <rect x="60" y="260" width="1480" height="560" class="host"/>
  <text x="90" y="294" class="group-title">Maquina local</text>

  <rect x="100" y="330" width="360" height="390" class="network"/>
  <text x="130" y="364" class="group-title">Portas expostas</text>

  <rect x="135" y="395" width="290" height="62" class="port"/>
  <text x="280" y="420" text-anchor="middle" class="box-title dark">API Gateway</text>
  <text x="280" y="443" text-anchor="middle" class="box-text dark">localhost:${API_GATEWAY_HOST_PORT}</text>

  <rect x="135" y="480" width="290" height="62" class="port"/>
  <text x="280" y="505" text-anchor="middle" class="box-title dark">Swagger</text>
  <text x="280" y="528" text-anchor="middle" class="box-text dark">localhost:${API_GATEWAY_HOST_PORT}/docs</text>

  <rect x="135" y="565" width="290" height="62" class="port"/>
  <text x="280" y="590" text-anchor="middle" class="box-title dark">Prometheus</text>
  <text x="280" y="613" text-anchor="middle" class="box-text dark">localhost:${PROMETHEUS_PORT}</text>

  <rect x="135" y="650" width="290" height="62" class="port"/>
  <text x="280" y="675" text-anchor="middle" class="box-title dark">Grafana</text>
  <text x="280" y="698" text-anchor="middle" class="box-text dark">localhost:${GRAFANA_PORT}</text>

  <rect x="520" y="330" width="980" height="390" class="network"/>
  <text x="550" y="364" class="group-title">Rede Docker Compose</text>

  <rect x="565" y="450" width="200" height="92" class="gateway"/>
  <text x="665" y="483" text-anchor="middle" class="box-title white">api-gateway</text>
  <text x="665" y="509" text-anchor="middle" class="box-text white">container</text>
  <text x="665" y="532" text-anchor="middle" class="box-text white">porta 3000</text>

  <rect x="850" y="380" width="210" height="70" class="service"/>
  <text x="955" y="408" text-anchor="middle" class="box-title dark">auth-service</text>
  <text x="955" y="432" text-anchor="middle" class="box-text dark">porta interna 3001</text>

  <rect x="850" y="475" width="210" height="70" class="service"/>
  <text x="955" y="503" text-anchor="middle" class="box-title dark">catalog-service</text>
  <text x="955" y="527" text-anchor="middle" class="box-text dark">porta interna 3002</text>

  <rect x="850" y="570" width="210" height="70" class="service"/>
  <text x="955" y="598" text-anchor="middle" class="box-title dark">game-service</text>
  <text x="955" y="622" text-anchor="middle" class="box-text dark">porta interna 3003</text>

  <rect x="1110" y="475" width="220" height="70" class="service"/>
  <text x="1220" y="503" text-anchor="middle" class="box-title dark">ranking-service</text>
  <text x="1220" y="527" text-anchor="middle" class="box-text dark">porta interna 3004</text>

  <path d="M1370,420 C1370,392 1470,392 1470,420 L1470,612 C1470,640 1370,640 1370,612 Z" class="database"/>
  <ellipse cx="1420" cy="420" rx="50" ry="22" fill="#fff7ed" stroke="#f97316" stroke-width="2"/>
  <text x="1420" y="502" text-anchor="middle" class="box-title dark">mongodb</text>
  <text x="1420" y="528" text-anchor="middle" class="box-text dark">volume</text>
  <text x="1420" y="551" text-anchor="middle" class="box-text dark">mongodb-data</text>

  <rect x="565" y="610" width="200" height="70" class="obs"/>
  <text x="665" y="638" text-anchor="middle" class="box-title dark">prometheus</text>
  <text x="665" y="662" text-anchor="middle" class="box-text dark">coleta metricas</text>

  <rect x="1110" y="610" width="220" height="70" class="obs"/>
  <text x="1220" y="638" text-anchor="middle" class="box-title dark">grafana</text>
  <text x="1220" y="662" text-anchor="middle" class="box-text dark">dashboard</text>

  <line x1="420" y1="173" x2="800" y2="260" class="line"/>
  <text x="575" y="188" class="label">cria rede, builda imagens e sobe containers</text>

  <line x1="425" y1="426" x2="565" y2="486" class="line"/>
  <line x1="425" y1="511" x2="565" y2="496" class="line"/>
  <line x1="425" y1="596" x2="565" y2="638" class="purple-line"/>
  <line x1="425" y1="681" x2="1110" y2="645" class="purple-line"/>

  <line x1="765" y1="482" x2="850" y2="415" class="line"/>
  <line x1="765" y1="496" x2="850" y2="510" class="line"/>
  <line x1="765" y1="510" x2="850" y2="605" class="line"/>
  <line x1="765" y1="524" x2="1110" y2="510" class="line"/>

  <line x1="1060" y1="415" x2="1370" y2="470" class="line"/>
  <line x1="1060" y1="510" x2="1370" y2="515" class="line"/>
  <line x1="1060" y1="605" x2="1370" y2="560" class="line"/>
  <line x1="1330" y1="510" x2="1370" y2="515" class="line"/>

  <path d="M665,610 C690,560 730,520 850,510" class="purple-line"/>
  <path d="M665,610 C760,632 820,620 850,605" class="purple-line"/>
  <line x1="765" y1="645" x2="1110" y2="645" class="purple-line"/>

  <text x="60" y="850" class="small">Importante para demo: depois de subir, rode os seeds de admin e catalogo antes de testar o fluxo pelo Swagger.</text>
</svg>
